<?xml version="1.0" encoding="utf-8"?>
<!-- Generator: Adobe Illustrator 19.2.0, SVG Export Plug-In . SVG Version: 6.00 Build 0)  -->
<svg version="1.1" id="Ebene_1" xmlns="http://www.w3.org/2000/svg" xmlns:xlink="http://www.w3.org/1999/xlink" x="0px" y="0px"
	 viewBox="0 0 70.2 52.7" style="enable-background:new 0 0 70.2 52.7;" xml:space="preserve">
<style type="text/css">
	.st0{fill:#FFFFFF;}
</style>
<g>
	<path class="st0" d="M36.016,46.073c-0.216-0.216-0.504-0.288-0.72-0.504H19.668C19.216,45.823,18.8,46.4,18.8,46.4l-2,2.9h21.44
		l-1.936-2.867L36.016,46.073z"/>
	<path class="st0" d="M54.07,31.222L52.1,30.8l-0.287-2.775l-0.023-0.03l-0.088-0.133L49.5,27L47,28.8c0,0-1.7-1-3-2.4
		c-1.3-1.4-2.4-2.8-2.4-2.8l1.7-2.7l-0.9-2l-3.2-0.3c0,0-0.4-2.2-0.5-3c-0.068-0.609-0.044-1.437-0.021-1.915l-1.654-0.097
		c-4.754-0.144-8.068-0.216-9.94-0.216c-1.944,0-5.114,0.072-9.58,0.216l-3.313,0.216c-0.836,0-1.894,0.231-4.559,3.86
		C8.861,18.804,7.954,20.212,7.1,21.6c-0.038,0-0.091,0.005-0.133,0.007c-0.043,0.067-0.081,0.124-0.124,0.193
		c-2.255,0.188-3.433,0.411-3.983,1.279C2.615,23.859,2.527,24.954,2.6,25.1c0,0.1,1,0.2,2,0.3
		c-0.048,0.075-0.092,0.144-0.139,0.217c0.002,0,0.003,0,0.005,0c-0.097,0.169-0.229,0.366-0.366,0.568
		c-0.267,0.422-0.489,0.779-0.656,1.051c-0.017,0.035-0.044,0.076-0.058,0.11c-0.016,0.016-0.03,0.042-0.046,0.06
		c-0.131,0.213-0.205,0.337-0.227,0.373c-0.03,0.07-0.067,0.133-0.087,0.215l-1.297,1.728c-0.667,0.924-1.106,1.656-1.361,2.215
		C0.298,32.102,0.237,32.26,0.2,32.4C-0.2,33.6,0.3,44,0.4,47.2v4.4c0,0.6,0.6,1.1,1.2,1.1h4.812c0.576,0,1.008-0.504,1.008-1.081
		v-3.385H7.6V48.2h6.399l2.426-3.568c0.36-0.504,0.649-0.793,0.865-0.865c0.042-0.021,0.105-0.04,0.178-0.059
		c0.204-0.154,0.422-0.279,0.633-0.309c0.7-0.1,18.5-0.1,19.1,0c0.7,0.1,1.5,1.2,1.5,1.2l2.5,3.6h6.4v3.4c0,0.6,0.5,1.1,1.2,1.1
		h4.432c0.649,0,1.081-0.504,1.081-1.081v-3.458c0-0.217,0.072-0.793,0.072-2.305c0.288-3.818,0.432-7.42,0.432-10.805
		c0-1.009-0.072-1.873-0.145-2.52C54.591,32.211,54.386,31.766,54.07,31.222z M12.317,37.573l-6.771-1.225
		c-1.009-0.216-1.441-0.36-1.441-3.313c0-1.378,0.311-2.248,1.448-2.505c0.016-0.009,0.03-0.022,0.047-0.03c0.9-0.4,1.8,0,1.8,0
		l4.1,2.5l1,4.5l-0.206-0.039L12.317,37.573z M42.1,34.1h-0.336c0.005,0.029,0.015,0.059,0.015,0.087h-12.1
		c0.254,0.273,0.431,0.561,0.521,1.013h11.7c-0.1,0.4-0.2,0.7-0.4,1l-0.249,0.018c-0.029,0.078-0.049,0.131-0.049,0.131
		l-11.128,0.704c-0.2,0.466-0.489,0.758-0.874,1.047L41,37.3c-0.3,0.4-0.6,0.7-0.9,0.9c-0.171,0.086-0.538,0.177-1.036,0.272
		c-0.934,0.211-2.738,0.484-5.426,0.759c-3.529,0.36-5.618,0.576-6.267,0.576c-0.648,0-2.737-0.144-6.267-0.504
		c-3.529-0.36-5.546-0.72-6.051-1.008c-0.288-0.216-0.576-0.504-0.865-0.865l0.417,0.026C14.574,37.4,14.53,37.359,14.5,37.3
		l11.296,0.779c-0.328-0.337-0.599-0.673-0.801-1.01l-11.381-0.72l-0.36-1.081h11.598c0.142-0.427,0.356-0.782,0.639-1.068H13.3
		c0-0.006,0-0.007,0-0.012h-0.189v-0.144c0.072-0.36,0.216-0.576,0.432-0.72c0.04-0.04,0.103-0.076,0.174-0.104
		C13.912,33.056,14.1,33,14.1,33l13.5-0.8L41.2,33c0,0,0.7,0.1,0.9,0.9C42.1,33.9,42.1,34,42.1,34.1z M51.1,35.2
		c-0.15,0.526-0.865,0.826-1.211,0.943l-0.546,0.205l-6.771,1.225l0.936-4.466l2.452-1.462L48,30.4c0,0,0.9-0.4,1.8,0
		c0.9,0.4,1.3,1.6,1.3,1.6S51.4,34.5,51.1,35.2z"/>
	<path class="st0" d="M70.2,16.1v-3.8l-4.4-0.8l-1-2.5l2.6-3.7l-2.7-2.7L61,5.2l-2.5-1L57.8,0h-3.7l-0.8,4.4l-2.5,1l-3.7-2.6
		l-2.7,2.7l2.7,3.7l-1,2.5l-4.4,0.8v3.8l4.4,0.8l1,2.5L44.5,23l2.7,2.7l3.7-2.6l2.5,1l0.8,4.4H58l0.8-4.4l2.5-1l3.7,2.6l2.7-2.7
		l-2.6-3.7l0.7-2.4L70.2,16.1z M56.2,19.8c-3,0-5.4-2.4-5.4-5.4S53.2,9,56.2,9s5.4,2.4,5.4,5.4S59.2,19.8,56.2,19.8z"/>
</g>
</svg>
