<?xml version="1.0" encoding="utf-8"?>
<!-- Generator: Adobe Illustrator 19.2.1, SVG Export Plug-In . SVG Version: 6.00 Build 0)  -->
<svg version="1.1" id="Ebene_1" xmlns="http://www.w3.org/2000/svg" xmlns:xlink="http://www.w3.org/1999/xlink" x="0px" y="0px"
	 viewBox="0 0 74.7 66.2" style="enable-background:new 0 0 74.7 66.2;" xml:space="preserve">
<style type="text/css">
	.st0{fill:#FFFFFF;}
</style>
<g id="Ebene_70">
	<g>
		<path class="st0" d="M68.6,43.9v8.6H30.2l-18.9-43L0,8.6V0h17.4l4.1,9.4h53.2l-3.9,27.4H33.7l2.7,7.1L68.6,43.9L68.6,43.9z
			 M66.8,16.6h-42l2,4.5h39.3L66.8,16.6L66.8,16.6z M28.5,25.1l1.9,4.5h34.4l0.7-4.5H28.5L28.5,25.1z M40,61.3
			c0,2.7-2.2,4.9-4.9,4.9s-4.9-2.2-4.9-4.9c0-2.7,2.2-4.8,4.9-4.8S40,58.6,40,61.3L40,61.3L40,61.3z M68.6,61.3
			c0,2.7-2.1,4.9-4.8,4.9c-2.8,0-4.9-2.2-4.9-4.9c0-2.7,2.1-4.8,4.9-4.8C66.5,56.5,68.6,58.6,68.6,61.3L68.6,61.3z"/>
	</g>
</g>
<g id="Ebene_1_1_">
</g>
</svg>
